<?xml version="1.0" standalone="no"?>
<!DOCTYPE svg PUBLIC "-//W3C//DTD SVG 20010904//EN"
 "http://www.w3.org/TR/2001/REC-SVG-20010904/DTD/svg10.dtd">
<svg version="1.0" xmlns="http://www.w3.org/2000/svg"
 width="2000.000000pt" height="707.000000pt" viewBox="0 0 2000.000000 707.000000"
 preserveAspectRatio="xMidYMid meet">

<g transform="translate(0.000000,707.000000) scale(0.100000,-0.100000)"
fill="#000000" stroke="none">
<path d="M8168 7041 l-33 -29 0 -509 c0 -498 0 -509 22 -578 41 -129 123 -240
228 -309 l55 -37 2 -1022 c3 -1132 -2 -1051 69 -1132 114 -129 328 -107 417
44 l27 46 5 1032 5 1031 63 42 c72 48 140 128 183 212 58 115 59 126 59 676
l0 504 -29 29 c-39 38 -97 40 -138 5 l-28 -24 -5 -504 c-5 -496 -6 -504 -28
-560 -33 -81 -108 -160 -188 -199 -109 -52 -99 67 -102 -1133 -2 -747 -6
-1053 -13 -1063 -17 -20 -67 -16 -79 6 -7 13 -10 362 -10 1060 0 788 -3 1046
-12 1066 -8 18 -36 39 -81 61 -85 43 -145 102 -183 180 l-29 59 -5 505 c-3
278 -9 513 -13 522 -27 54 -109 64 -159 19z"/>
<path d="M8478 7041 l-33 -29 0 -432 0 -432 33 -29 c54 -48 129 -35 161 28 8
15 11 150 11 433 0 438 -2 454 -49 480 -38 20 -89 12 -123 -19z"/>
<path d="M8797 7050 c-15 -12 -31 -38 -37 -58 -13 -50 -13 -774 0 -824 22 -79
114 -105 171 -49 l29 29 0 432 0 432 -29 29 c-37 36 -94 40 -134 9z"/>
<path d="M9885 7057 c-72 -24 -128 -58 -180 -111 -67 -67 -104 -147 -116 -250
-12 -107 -11 -1080 1 -1176 19 -147 110 -270 245 -331 l65 -29 0 -814 0 -814
28 -53 c51 -97 143 -146 255 -136 95 9 167 61 209 152 l23 50 3 1530 c1 880
-1 1565 -7 1613 -17 161 -100 280 -239 345 -57 27 -81 32 -157 34 -55 2 -105
-2 -130 -10z m215 -221 c31 -15 54 -37 75 -71 l30 -48 3 -1564 c1 -1076 -1
-1570 -8 -1583 -15 -28 -64 -26 -84 2 -14 20 -16 120 -16 876 l0 853 -24 24
c-13 13 -37 27 -53 30 -126 25 -170 50 -207 121 -21 38 -21 52 -21 639 l0 600
27 47 c31 51 75 83 134 96 50 12 88 6 144 -22z"/>
<path d="M11198 7057 c-184 -69 -347 -303 -434 -623 -22 -82 -28 -127 -32
-255 -5 -185 4 -239 59 -349 44 -88 128 -181 203 -225 l46 -27 0 -1016 c1
-1097 -1 -1054 54 -1127 66 -86 201 -119 304 -75 28 12 68 40 88 62 74 82 69
-2 72 1135 l2 1022 55 37 c105 69 187 180 228 309 19 60 22 91 21 220 0 127
-4 166 -26 255 -77 308 -232 556 -397 638 -66 32 -182 41 -243 19z m170 -216
c44 -23 124 -129 172 -226 85 -172 120 -311 120 -473 0 -201 -62 -308 -226
-390 -38 -19 -64 -40 -72 -57 -9 -20 -12 -278 -12 -1066 0 -698 -3 -1047 -10
-1060 -12 -22 -62 -26 -79 -6 -7 10 -11 316 -13 1063 -3 1200 7 1081 -102
1133 -80 39 -156 118 -187 199 -19 48 -23 76 -23 182 0 69 6 152 13 185 40
179 133 376 222 466 74 76 124 89 197 50z"/>
<path d="M10 4000 l0 -120 3860 0 3860 0 0 120 0 120 -3860 0 -3860 0 0 -120z"/>
<path d="M12270 4000 l0 -120 3860 0 3860 0 0 120 0 120 -3860 0 -3860 0 0
-120z"/>
<path d="M10 3510 l0 -120 3860 0 3860 0 0 120 0 120 -3860 0 -3860 0 0 -120z"/>
<path d="M12270 3510 l0 -120 3860 0 3860 0 0 120 0 120 -3860 0 -3860 0 0
-120z"/>
<path d="M271 1713 c142 -544 266 -1016 275 -1050 l17 -63 161 0 162 0 172
583 c94 320 204 699 243 842 40 143 75 263 78 267 3 4 69 -203 146 -460 76
-257 191 -638 255 -847 l116 -380 165 -3 164 -2 245 1047 245 1048 -124 3
c-68 1 -126 1 -128 -2 -7 -6 -262 -1136 -339 -1504 -38 -177 -71 -322 -74
-322 -3 0 -70 220 -150 488 -79 268 -201 672 -270 897 l-126 410 -126 3 -126
3 -11 -33 c-40 -127 -308 -1059 -421 -1468 -45 -162 -83 -296 -85 -298 -2 -2
-17 57 -35 130 -38 158 -395 1601 -410 1658 l-11 40 -133 0 -132 0 257 -987z"/>
<path d="M10650 2693 c0 -4 122 -477 272 -1050 l272 -1043 162 0 c146 0 163 2
168 18 3 9 63 215 135 457 161 548 247 846 301 1045 23 85 45 161 49 168 4 8
72 -203 155 -480 155 -516 273 -905 332 -1095 l35 -113 163 0 164 0 5 28 c11
52 477 2037 483 2055 5 16 -5 17 -125 17 -72 0 -131 -3 -131 -6 0 -3 -60 -272
-134 -597 -74 -326 -165 -737 -202 -914 -37 -177 -69 -321 -71 -320 -1 2 -92
302 -202 668 -110 365 -233 771 -273 902 l-73 237 -127 0 c-71 0 -128 -2 -128
-5 0 -2 -38 -134 -84 -292 -121 -412 -253 -875 -341 -1193 -41 -151 -79 -283
-83 -293 -5 -12 -49 152 -125 465 -65 266 -167 677 -226 913 l-107 430 -132 3
c-73 1 -132 -1 -132 -5z"/>
<path d="M3390 2193 c-77 -11 -173 -38 -232 -65 l-68 -31 0 -122 0 -122 85 42
c125 63 203 80 365 80 133 0 137 -1 203 -33 110 -54 154 -140 164 -318 l6
-102 -244 -5 c-270 -5 -332 -16 -453 -80 -170 -91 -242 -219 -234 -421 3 -88
8 -110 35 -169 55 -117 156 -204 280 -242 78 -25 216 -30 310 -12 108 21 187
59 251 123 l52 53 0 -85 0 -84 126 0 126 0 -5 562 c-5 616 -7 637 -66 765 -61
130 -188 225 -346 258 -64 13 -287 19 -355 8z m518 -1010 c-3 -122 -7 -156
-24 -194 -59 -129 -179 -199 -344 -199 -97 0 -165 20 -217 65 -57 49 -84 109
-85 187 -1 112 54 194 161 242 75 33 153 43 350 45 l163 1 -4 -147z"/>
<path d="M6118 2190 c-27 -4 -76 -18 -110 -29 -215 -72 -396 -280 -463 -531
-22 -85 -32 -333 -16 -426 55 -324 267 -561 553 -618 98 -20 247 -20 346 -1
94 19 238 88 305 146 110 95 199 246 239 404 32 128 32 371 0 497 -70 281
-248 475 -497 543 -70 19 -287 28 -357 15z m253 -220 c133 -25 231 -104 298
-241 58 -120 75 -210 68 -384 -4 -116 -9 -152 -30 -213 -54 -151 -135 -248
-255 -305 -64 -31 -72 -32 -192 -32 -116 0 -129 2 -184 28 -85 39 -142 90
-197 174 -161 247 -138 633 51 845 51 57 139 111 206 127 54 13 171 13 235 1z"/>
<path d="M7954 2186 c-127 -29 -238 -106 -306 -210 l-38 -59 0 131 0 132 -125
0 -125 0 0 -790 0 -790 125 0 125 0 0 483 c0 524 2 542 57 657 33 68 122 159
189 193 105 53 242 59 333 15 58 -28 111 -81 141 -143 l25 -50 3 -577 3 -578
124 0 125 0 0 583 c0 484 -3 593 -15 646 -40 168 -144 287 -300 342 -78 27
-253 35 -341 15z"/>
<path d="M9463 2185 c-203 -44 -373 -214 -452 -451 -49 -147 -65 -359 -40
-513 54 -336 290 -563 601 -579 208 -10 351 52 463 200 l48 63 -6 -155 c-8
-221 -38 -310 -132 -399 -95 -90 -188 -121 -363 -122 -163 0 -295 28 -414 88
l-48 23 0 -124 0 -125 57 -21 c146 -55 287 -75 473 -67 152 6 228 25 345 85
100 52 202 156 248 252 75 154 71 101 75 1018 l3 822 -120 0 -120 0 -3 -125
-3 -126 -45 62 c-47 64 -114 121 -187 158 -98 49 -253 63 -380 36z m281 -220
c105 -28 201 -107 260 -214 88 -163 98 -482 19 -649 -35 -74 -131 -170 -208
-208 -55 -27 -69 -29 -170 -29 -107 0 -112 1 -174 35 -123 66 -202 173 -238
317 -24 99 -21 295 6 396 71 269 276 412 505 352z"/>
<path d="M13975 2185 c-79 -14 -171 -45 -218 -73 l-32 -18 -3 -122 -3 -121 85
43 c109 56 195 78 331 84 278 12 389 -85 402 -349 l6 -107 -244 -5 c-269 -5
-308 -12 -434 -72 -102 -49 -167 -111 -211 -200 -32 -66 -37 -86 -42 -170 -16
-310 204 -511 538 -492 159 10 272 56 349 143 l41 47 0 -87 0 -86 125 0 125 0
0 513 c0 502 -6 631 -34 727 -54 182 -189 305 -381 345 -86 18 -303 18 -400 0z
m563 -1002 c-4 -180 -20 -226 -105 -303 -68 -62 -149 -90 -262 -90 -111 0
-173 21 -230 78 -53 53 -71 101 -71 188 0 102 56 180 165 230 68 31 149 41
343 43 l164 1 -4 -147z"/>
<path d="M16735 2190 c-283 -45 -490 -250 -562 -558 -14 -58 -18 -118 -18
-247 0 -148 3 -180 23 -250 79 -271 264 -454 534 -527 70 -19 107 -22 243 -22
174 0 276 18 388 68 l57 25 0 110 c0 61 -4 111 -9 111 -5 0 -28 -11 -52 -24
-117 -65 -365 -95 -519 -62 -224 47 -374 203 -414 429 l-7 37 540 0 540 0 5
33 c18 121 10 304 -19 418 -57 222 -219 390 -429 444 -77 19 -224 26 -301 15z
m292 -244 c69 -32 138 -97 173 -166 27 -53 50 -158 50 -232 l0 -58 -426 0
-425 0 6 48 c9 63 51 189 78 232 55 90 143 161 236 192 87 28 226 21 308 -16z"/>
<path d="M18440 2189 c-119 -23 -246 -117 -303 -223 l-22 -41 -3 128 -3 127
-119 0 -120 0 0 -790 0 -790 119 0 119 0 4 493 c5 534 6 545 64 665 35 73 120
156 191 190 49 23 71 27 143 26 54 0 98 -6 121 -16 47 -20 106 -73 126 -112
41 -79 43 -110 43 -688 l0 -558 124 0 125 0 3 503 c4 450 6 508 22 557 45 139
125 237 234 288 47 22 71 27 137 27 139 -1 217 -52 268 -177 22 -52 22 -64 25
-625 l3 -573 125 0 125 0 -3 598 c-4 528 -6 604 -21 657 -66 230 -223 344
-472 345 -182 0 -354 -97 -442 -249 l-30 -52 -32 65 c-58 119 -156 193 -290
222 -73 15 -191 17 -261 3z"/>
<path d="M5115 2172 c-110 -38 -177 -93 -239 -196 l-35 -59 -3 129 -3 129
-122 3 -123 3 0 -791 0 -790 125 0 125 0 0 478 c0 395 3 488 15 537 36 141
129 271 230 320 57 28 151 37 228 22 l37 -8 0 121 0 120 -92 0 c-62 -1 -110
-7 -143 -18z"/>
<path d="M15767 2179 c-102 -24 -207 -107 -266 -210 l-31 -54 0 133 0 132
-125 0 -125 0 0 -790 0 -790 125 0 125 0 0 473 c0 521 2 543 63 666 45 92 136
183 205 205 60 20 135 25 205 13 l48 -8 -3 118 -3 118 -90 2 c-49 1 -107 -3
-128 -8z"/>
</g>
</svg>
